<?xml version="1.0" encoding="UTF-8"?>
<svg version="1.1" xmlns="http://www.w3.org/2000/svg" width="512" height="512">
<path d="M0 0 C4.59335674 2.77185321 9.69288863 7.33698398 11.14672852 12.625 C11.3525354 13.553125 11.3525354 13.553125 11.5625 14.5 C12.3178302 14.49111755 13.0731604 14.48223511 13.85137939 14.4730835 C20.97271087 14.39290611 28.09382325 14.33202015 35.21548843 14.29275131 C38.87676511 14.2718839 42.53766858 14.24358294 46.19873047 14.19824219 C49.73248711 14.15475237 53.26588499 14.13085652 56.79988861 14.12049103 C58.80301252 14.10951263 60.80599226 14.07829124 62.80889893 14.04681396 C64.02986267 14.04651184 65.25082642 14.04620972 66.50878906 14.04589844 C67.58356506 14.03701599 68.65834106 14.02813354 69.76568604 14.01898193 C72.5625 14.5 72.5625 14.5 74.91247559 16.15576172 C77.00880024 19.1340719 77.04706059 20.83728998 77.01660156 24.46191406 C77.01629944 25.66285706 77.01599731 26.86380005 77.01568604 28.10113525 C76.99504089 29.39291687 76.97439575 30.68469849 76.953125 32.015625 C76.94566071 33.35511429 76.93996866 34.69461452 76.93597412 36.03411865 C76.92073213 39.55251436 76.88146418 43.07024515 76.8371582 46.58837891 C76.79617366 50.18122196 76.77773697 53.7741761 76.7578125 57.3671875 C76.71709078 64.41204477 76.63879879 71.45507833 76.5625 78.5 C95.0425 78.5 113.5225 78.5 132.5625 78.5 C132.5625 67.61 132.5625 56.72 132.5625 45.5 C129.5925 44.51 129.5925 44.51 126.5625 43.5 C121.83192521 40.01866438 117.72320457 35.36570344 116.5625 29.5 C115.80929946 21.61022438 115.39466469 13.93460274 120.5625 7.5 C125.36698639 2.45478778 129.72427055 -1.10562995 136.83203125 -1.8359375 C145.34826573 -1.92983204 151.23845494 -1.6177288 157.52734375 4.37109375 C163.9091668 11.27494731 165.04292252 16.70167929 164.8671875 26.0546875 C164.16700827 33.97209883 160.448306 38.10572493 154.5625 43.15234375 C152.5625 44.5 152.5625 44.5 148.5625 45.5 C148.5625 56.39 148.5625 67.28 148.5625 78.5 C167.0425 78.5 185.5225 78.5 204.5625 78.5 C204.51609375 74.21515625 204.4696875 69.9303125 204.421875 65.515625 C204.39614719 62.09689806 204.3744575 58.67819852 204.35549927 55.25942993 C204.33438484 51.65159651 204.30617507 48.04413955 204.26074219 44.43652344 C204.21724875 40.96112087 204.19335579 37.48608312 204.18299103 34.01042938 C204.17201385 32.04054216 204.140793 30.07080153 204.10931396 28.10113525 C204.10901184 26.90019226 204.10870972 25.69924927 204.10839844 24.46191406 C204.09951599 23.40490295 204.09063354 22.34789185 204.08148193 21.2588501 C204.6998848 17.71203779 205.63227067 16.56460083 208.5625 14.5 C211.35931396 14.01898193 211.35931396 14.01898193 214.61621094 14.04589844 C215.83717468 14.04620056 217.05813843 14.04650269 218.31610107 14.04681396 C219.62975647 14.06745911 220.94341187 14.08810425 222.296875 14.109375 C223.65878468 14.11683913 225.02070512 14.12253126 226.38262939 14.12652588 C229.96020368 14.14176908 233.53712422 14.18103819 237.11444092 14.2253418 C240.76761024 14.26632368 244.42088562 14.28454303 248.07421875 14.3046875 C255.2372766 14.3475349 262.39979656 14.41576885 269.5625 14.5 C269.86196533 13.5514917 270.16143066 12.6029834 270.4699707 11.62573242 C272.44874877 5.96443732 276.65832558 2.70468177 281.625 -0.4375 C288.33557977 -2.86666915 297.45569598 -2.87591485 304 0 C309.82485779 3.51996782 314.54466582 8.98962934 316.5625 15.5 C317.36764105 23.33608208 317.68710392 31.11922577 312.5625 37.5 C307.75801361 42.54521222 303.40072945 46.10562995 296.29296875 46.8359375 C287.74364273 46.93019688 281.86940155 46.60501554 275.5625 40.59375 C272.38284459 37.15767077 270.72068909 35.13275636 269.5625 30.5 C253.3925 30.5 237.2225 30.5 220.5625 30.5 C220.5625 46.34 220.5625 62.18 220.5625 78.5 C233.56052572 78.34247634 233.56052572 78.34247634 246.55786133 78.13964844 C260.45786459 77.99383807 271.12281841 79.53395236 281.5625 89.5 C293.24200264 101.73456812 293.09754527 114.71676667 292.8125 130.6875 C292.73 137.225625 292.6475 143.76375 292.5625 150.5 C308.4025 150.5 324.2425 150.5 340.5625 150.5 C340.5625 134.33 340.5625 118.16 340.5625 101.5 C338.5825 100.84 336.6025 100.18 334.5625 99.5 C329.83192521 96.01866438 325.72320457 91.36570344 324.5625 85.5 C323.80929946 77.61022438 323.39466469 69.93460274 328.5625 63.5 C333.36698639 58.45478778 337.72427055 54.89437005 344.83203125 54.1640625 C353.34826573 54.07016796 359.23845494 54.3822712 365.52734375 60.37109375 C371.9091668 67.27494731 373.04292252 72.70167929 372.8671875 82.0546875 C372.16700827 89.97209883 368.448306 94.10572493 362.5625 99.15234375 C360.50953863 100.53568686 358.95071676 100.97042537 356.5625 101.5 C356.57138245 102.2553302 356.58026489 103.0106604 356.5894165 103.78887939 C356.66959389 110.91021087 356.73047985 118.03132325 356.76974869 125.15298843 C356.7906161 128.81426511 356.81891706 132.47516858 356.86425781 136.13623047 C356.90774763 139.66998711 356.93164348 143.20338499 356.94200897 146.73738861 C356.95298737 148.74051252 356.98420876 150.74349226 357.01568604 152.74639893 C357.01598816 153.96736267 357.01629028 155.18832642 357.01660156 156.44628906 C357.02548401 157.52106506 357.03436646 158.59584106 357.04351807 159.70318604 C356.5625 162.5 356.5625 162.5 354.90673828 164.84997559 C351.9284281 166.94630024 350.22521002 166.98456059 346.60058594 166.95410156 C345.39964294 166.95379944 344.19869995 166.95349731 342.96136475 166.95318604 C341.66958313 166.93254089 340.37780151 166.91189575 339.046875 166.890625 C337.70738571 166.88316071 336.36788548 166.87746866 335.02838135 166.87347412 C331.50998564 166.85823213 327.99225485 166.81896418 324.47412109 166.7746582 C320.88127804 166.73367366 317.2883239 166.71523697 313.6953125 166.6953125 C306.65045523 166.65459078 299.60742167 166.57629879 292.5625 166.5 C292.5625 184.98 292.5625 203.46 292.5625 222.5 C303.4525 222.5 314.3425 222.5 325.5625 222.5 C326.2225 220.52 326.8825 218.54 327.5625 216.5 C331.04383562 211.76942521 335.69679656 207.66070457 341.5625 206.5 C349.45227562 205.74679946 357.12789726 205.33216469 363.5625 210.5 C368.60771222 215.30448639 372.16812995 219.66177055 372.8984375 226.76953125 C372.99233204 235.28576573 372.6802288 241.17595494 366.69140625 247.46484375 C359.78755269 253.8466668 354.36082071 254.98042252 345.0078125 254.8046875 C337.09040117 254.10450827 332.95677507 250.385806 327.91015625 244.5 C326.5625 242.5 326.5625 242.5 325.5625 238.5 C314.6725 238.5 303.7825 238.5 292.5625 238.5 C292.5625 256.98 292.5625 275.46 292.5625 294.5 C298.98976563 294.43039062 298.98976563 294.43039062 305.546875 294.359375 C308.96560194 294.33364719 312.38430148 294.3119575 315.80307007 294.29299927 C319.41090349 294.27188484 323.01836045 294.24367507 326.62597656 294.19824219 C330.10137913 294.15474875 333.57641688 294.13085579 337.05207062 294.12049103 C339.02195784 294.10951385 340.99169847 294.078293 342.96136475 294.04681396 C344.76277924 294.04636078 344.76277924 294.04636078 346.60058594 294.04589844 C347.65759705 294.03701599 348.71460815 294.02813354 349.8036499 294.01898193 C353.35046221 294.6373848 354.49789917 295.56977067 356.5625 298.5 C357.04351807 301.29681396 357.04351807 301.29681396 357.01660156 304.55371094 C357.01614838 306.38515656 357.01614838 306.38515656 357.01568604 308.25360107 C356.98471832 310.22408417 356.98471832 310.22408417 356.953125 312.234375 C356.94566087 313.59628468 356.93996874 314.95820512 356.93597412 316.32012939 C356.92073092 319.89770368 356.88146181 323.47462422 356.8371582 327.05194092 C356.79617632 330.70511024 356.77795697 334.35838562 356.7578125 338.01171875 C356.7149651 345.1747766 356.64673115 352.33729656 356.5625 359.5 C357.5110083 359.79946533 358.4595166 360.09893066 359.43676758 360.4074707 C365.09806268 362.38624877 368.35781823 366.59582558 371.5 371.5625 C373.92916915 378.27307977 373.93841485 387.39319598 371.0625 393.9375 C367.54253218 399.76235779 362.07287066 404.48216582 355.5625 406.5 C347.72641792 407.30514105 339.94327423 407.62460392 333.5625 402.5 C328.51728778 397.69551361 324.95687005 393.33822945 324.2265625 386.23046875 C324.13230312 377.68114273 324.45748446 371.80690155 330.46875 365.5 C333.90482923 362.32034459 335.92974364 360.65818909 340.5625 359.5 C340.5625 343.33 340.5625 327.16 340.5625 310.5 C324.7225 310.5 308.8825 310.5 292.5625 310.5 C292.72002366 323.49802572 292.72002366 323.49802572 292.92285156 336.49536133 C293.06866193 350.39536459 291.52854764 361.06031841 281.5625 371.5 C269.32793188 383.17950264 256.34573333 383.03504527 240.375 382.75 C233.836875 382.6675 227.29875 382.585 220.5625 382.5 C220.5625 398.34 220.5625 414.18 220.5625 430.5 C236.7325 430.5 252.9025 430.5 269.5625 430.5 C270.2225 428.52 270.8825 426.54 271.5625 424.5 C275.04383562 419.76942521 279.69679656 415.66070457 285.5625 414.5 C293.45227562 413.74679946 301.12789726 413.33216469 307.5625 418.5 C312.60771222 423.30448639 316.16812995 427.66177055 316.8984375 434.76953125 C316.99233204 443.28576573 316.6802288 449.17595494 310.69140625 455.46484375 C303.78755269 461.8466668 298.36082071 462.98042252 289.0078125 462.8046875 C281.09040117 462.10450827 276.95677507 458.385806 271.91015625 452.5 C270.52681314 450.44703863 270.09207463 448.88821676 269.5625 446.5 C268.8071698 446.50888245 268.0518396 446.51776489 267.27362061 446.5269165 C260.15228913 446.60709389 253.03117675 446.66797985 245.90951157 446.70724869 C242.24823489 446.7281161 238.58733142 446.75641706 234.92626953 446.80175781 C231.39251289 446.84524763 227.85911501 446.86914348 224.32511139 446.87950897 C222.32198748 446.89048737 220.31900774 446.92170876 218.31610107 446.95318604 C217.09513733 446.95348816 215.87417358 446.95379028 214.61621094 446.95410156 C213.00404694 446.96742523 213.00404694 446.96742523 211.35931396 446.98101807 C208.5625 446.5 208.5625 446.5 206.21252441 444.84423828 C204.11619976 441.8659281 204.07793941 440.16271002 204.10839844 436.53808594 C204.10885162 434.73667145 204.10885162 434.73667145 204.10931396 432.89886475 C204.12995911 431.60708313 204.15060425 430.31530151 204.171875 428.984375 C204.17933929 427.64488571 204.18503134 426.30538548 204.18902588 424.96588135 C204.20426787 421.44748564 204.24353582 417.92975485 204.2878418 414.41162109 C204.32882634 410.81877804 204.34726303 407.2258239 204.3671875 403.6328125 C204.40790922 396.58795523 204.48620121 389.54492167 204.5625 382.5 C186.0825 382.5 167.6025 382.5 148.5625 382.5 C148.5625 393.39 148.5625 404.28 148.5625 415.5 C150.5425 416.16 152.5225 416.82 154.5625 417.5 C159.29307479 420.98133562 163.40179543 425.63429656 164.5625 431.5 C165.31570054 439.38977562 165.73033531 447.06539726 160.5625 453.5 C155.75801361 458.54521222 151.40072945 462.10562995 144.29296875 462.8359375 C135.77673427 462.92983204 129.88654506 462.6177288 123.59765625 456.62890625 C117.2158332 449.72505269 116.08207748 444.29832071 116.2578125 434.9453125 C116.95799173 427.02790117 120.676694 422.89427507 126.5625 417.84765625 C128.5625 416.5 128.5625 416.5 132.5625 415.5 C132.5625 404.61 132.5625 393.72 132.5625 382.5 C114.0825 382.5 95.6025 382.5 76.5625 382.5 C76.60890625 386.78484375 76.6553125 391.0696875 76.703125 395.484375 C76.72885281 398.90310194 76.7505425 402.32180148 76.76950073 405.74057007 C76.79061516 409.34840349 76.81882493 412.95586045 76.86425781 416.56347656 C76.90775125 420.03887913 76.93164421 423.51391688 76.94200897 426.98957062 C76.95298615 428.95945784 76.984207 430.92919847 77.01568604 432.89886475 C77.01598816 434.09980774 77.01629028 435.30075073 77.01660156 436.53808594 C77.02548401 437.59509705 77.03436646 438.65210815 77.04351807 439.7411499 C76.4251152 443.28796221 75.49272933 444.43539917 72.5625 446.5 C69.76568604 446.98101807 69.76568604 446.98101807 66.50878906 446.95410156 C65.28782532 446.95379944 64.06686157 446.95349731 62.80889893 446.95318604 C61.49524353 446.93254089 60.18158813 446.91189575 58.828125 446.890625 C57.46621532 446.88316087 56.10429488 446.87746874 54.74237061 446.87347412 C51.16479632 446.85823092 47.58787578 446.81896181 44.01055908 446.7746582 C40.35738976 446.73367632 36.70411438 446.71545697 33.05078125 446.6953125 C25.8877234 446.6524651 18.72520344 446.58423115 11.5625 446.5 C11.26303467 447.4485083 10.96356934 448.3970166 10.6550293 449.37426758 C8.67625123 455.03556268 4.46667442 458.29531823 -0.5 461.4375 C-7.21057977 463.86666915 -16.33069598 463.87591485 -22.875 461 C-28.69985779 457.48003218 -33.41966582 452.01037066 -35.4375 445.5 C-36.24264105 437.66391792 -36.56210392 429.88077423 -31.4375 423.5 C-26.63301361 418.45478778 -22.27572945 414.89437005 -15.16796875 414.1640625 C-6.61864273 414.06980312 -0.74440155 414.39498446 5.5625 420.40625 C8.74215541 423.84232923 10.40431091 425.86724364 11.5625 430.5 C27.7325 430.5 43.9025 430.5 60.5625 430.5 C60.5625 414.66 60.5625 398.82 60.5625 382.5 C47.56447428 382.65752366 47.56447428 382.65752366 34.56713867 382.86035156 C20.66713541 383.00616193 10.00218159 381.46604764 -0.4375 371.5 C-12.11700264 359.26543188 -11.97254527 346.28323333 -11.6875 330.3125 C-11.605 323.774375 -11.5225 317.23625 -11.4375 310.5 C-27.2775 310.5 -43.1175 310.5 -59.4375 310.5 C-59.4375 326.67 -59.4375 342.84 -59.4375 359.5 C-57.4575 360.16 -55.4775 360.82 -53.4375 361.5 C-48.70692521 364.98133562 -44.59820457 369.63429656 -43.4375 375.5 C-42.68429946 383.38977562 -42.26966469 391.06539726 -47.4375 397.5 C-52.24198639 402.54521222 -56.59927055 406.10562995 -63.70703125 406.8359375 C-72.22326573 406.92983204 -78.11345494 406.6177288 -84.40234375 400.62890625 C-90.7841668 393.72505269 -91.91792252 388.29832071 -91.7421875 378.9453125 C-91.04200827 371.02790117 -87.323306 366.89427507 -81.4375 361.84765625 C-79.38453863 360.46431314 -77.82571676 360.02957463 -75.4375 359.5 C-75.44638245 358.7446698 -75.45526489 357.9893396 -75.4644165 357.21112061 C-75.54459389 350.08978913 -75.60547985 342.96867675 -75.64474869 335.84701157 C-75.6656161 332.18573489 -75.69391706 328.52483142 -75.73925781 324.86376953 C-75.78274763 321.33001289 -75.80664348 317.79661501 -75.81700897 314.26261139 C-75.82798737 312.25948748 -75.85920876 310.25650774 -75.89068604 308.25360107 C-75.89098816 307.03263733 -75.89129028 305.81167358 -75.89160156 304.55371094 C-75.90048401 303.47893494 -75.90936646 302.40415894 -75.91851807 301.29681396 C-75.4375 298.5 -75.4375 298.5 -73.78173828 296.15002441 C-70.8034281 294.05369976 -69.10021002 294.01543941 -65.47558594 294.04589844 C-64.27464294 294.04620056 -63.07369995 294.04650269 -61.83636475 294.04681396 C-60.54458313 294.06745911 -59.25280151 294.08810425 -57.921875 294.109375 C-56.58238571 294.11683929 -55.24288548 294.12253134 -53.90338135 294.12652588 C-50.38498564 294.14176787 -46.86725485 294.18103582 -43.34912109 294.2253418 C-39.75627804 294.26632634 -36.1633239 294.28476303 -32.5703125 294.3046875 C-25.52545523 294.34540922 -18.48242167 294.42370121 -11.4375 294.5 C-11.4375 276.02 -11.4375 257.54 -11.4375 238.5 C-22.3275 238.5 -33.2175 238.5 -44.4375 238.5 C-45.0975 240.48 -45.7575 242.46 -46.4375 244.5 C-49.91883562 249.23057479 -54.57179656 253.33929543 -60.4375 254.5 C-68.32727562 255.25320054 -76.00289726 255.66783531 -82.4375 250.5 C-87.48271222 245.69551361 -91.04312995 241.33822945 -91.7734375 234.23046875 C-91.86733204 225.71423427 -91.5552288 219.82404506 -85.56640625 213.53515625 C-78.66255269 207.1533332 -73.23582071 206.01957748 -63.8828125 206.1953125 C-55.96540117 206.89549173 -51.83177507 210.614194 -46.78515625 216.5 C-45.4375 218.5 -45.4375 218.5 -44.4375 222.5 C-33.5475 222.5 -22.6575 222.5 -11.4375 222.5 C-11.4375 204.02 -11.4375 185.54 -11.4375 166.5 C-15.72234375 166.54640625 -20.0071875 166.5928125 -24.421875 166.640625 C-27.84060194 166.66635281 -31.25930148 166.6880425 -34.67807007 166.70700073 C-38.28590349 166.72811516 -41.89336045 166.75632493 -45.50097656 166.80175781 C-48.97637913 166.84525125 -52.45141688 166.86914421 -55.92707062 166.87950897 C-57.89695784 166.89048615 -59.86669847 166.921707 -61.83636475 166.95318604 C-63.63777924 166.95363922 -63.63777924 166.95363922 -65.47558594 166.95410156 C-66.53259705 166.96298401 -67.58960815 166.97186646 -68.6786499 166.98101807 C-72.22546221 166.3626152 -73.37289917 165.43022933 -75.4375 162.5 C-75.91851807 159.70318604 -75.91851807 159.70318604 -75.89160156 156.44628906 C-75.89129944 155.22532532 -75.89099731 154.00436157 -75.89068604 152.74639893 C-75.87004089 151.43274353 -75.84939575 150.11908813 -75.828125 148.765625 C-75.82066087 147.40371532 -75.81496874 146.04179488 -75.81097412 144.67987061 C-75.79573092 141.10229632 -75.75646181 137.52537578 -75.7121582 133.94805908 C-75.67117632 130.29488976 -75.65295697 126.64161438 -75.6328125 122.98828125 C-75.5899651 115.8252234 -75.52173115 108.66270344 -75.4375 101.5 C-76.3860083 101.20053467 -77.3345166 100.90106934 -78.31176758 100.5925293 C-83.97306268 98.61375123 -87.23281823 94.40417442 -90.375 89.4375 C-92.80416915 82.72692023 -92.81341485 73.60680402 -89.9375 67.0625 C-86.41753218 61.23764221 -80.94787066 56.51783418 -74.4375 54.5 C-66.60141792 53.69485895 -58.81827423 53.37539608 -52.4375 58.5 C-47.39228778 63.30448639 -43.83187005 67.66177055 -43.1015625 74.76953125 C-43.00730312 83.31885727 -43.33248446 89.19309845 -49.34375 95.5 C-52.77982923 98.67965541 -54.80474364 100.34181091 -59.4375 101.5 C-59.4375 117.67 -59.4375 133.84 -59.4375 150.5 C-43.5975 150.5 -27.7575 150.5 -11.4375 150.5 C-11.59502366 137.50197428 -11.59502366 137.50197428 -11.79785156 124.50463867 C-11.94366193 110.60463541 -10.40354764 99.93968159 -0.4375 89.5 C11.79706812 77.82049736 24.77926667 77.96495473 40.75 78.25 C47.288125 78.3325 53.82625 78.415 60.5625 78.5 C60.5625 62.66 60.5625 46.82 60.5625 30.5 C44.3925 30.5 28.2225 30.5 11.5625 30.5 C10.5725 33.47 10.5725 33.47 9.5625 36.5 C6.08116438 41.23057479 1.42820344 45.33929543 -4.4375 46.5 C-12.32727562 47.25320054 -20.00289726 47.66783531 -26.4375 42.5 C-31.48271222 37.69551361 -35.04312995 33.33822945 -35.7734375 26.23046875 C-35.86733204 17.71423427 -35.5552288 11.82404506 -29.56640625 5.53515625 C-21.52363185 -1.89946886 -10.4806088 -4.64434821 0 0 Z " fill="#B04D9F" transform="translate(115.4375,25.5)"/>
<path d="M0 0 C6.58016559 4.64314715 13.09747479 10.27613243 17.70703125 16.91015625 C21.05228074 15.79507309 21.54924818 15.09723683 23.64453125 12.41015625 C33.80588358 0.49463362 47.17951021 -6.69044988 62.70703125 -8.08984375 C79.58281752 -9.34490795 94.41509855 -4.07767775 107.328125 6.75390625 C119.83220457 18.08765325 129.76539429 34.65076049 130.82958984 51.89624023 C132.08368375 87.37949709 117.98776769 117.20149173 94.20703125 143.16015625 C92.385973 145.08848949 90.55245065 147.00512358 88.70703125 148.91015625 C87.98 149.6678833 87.98 149.6678833 87.23828125 150.44091797 C80.4629984 157.4830658 73.42230386 163.89031211 65.70703125 169.91015625 C64.76988281 170.66425781 63.83273437 171.41835938 62.8671875 172.1953125 C53.66631041 179.47786 43.93942207 185.97159859 34.09521484 192.35009766 C32.57237163 193.34488074 31.06302272 194.36085908 29.57275391 195.40380859 C25.18795873 198.38581146 21.14462449 200.62749978 15.70703125 199.91015625 C12.4402708 198.58179811 9.66303183 196.72234509 6.76953125 194.72265625 C5.94904297 194.17891357 5.12855469 193.6351709 4.28320312 193.07495117 C1.74032379 191.37766228 -0.77788132 189.64830091 -3.29296875 187.91015625 C-4.07043457 187.38035156 -4.84790039 186.85054687 -5.64892578 186.3046875 C-14.54106877 180.23778178 -23.09772143 173.89953146 -31.29296875 166.91015625 C-32.41225768 165.97595982 -33.53207983 165.04240202 -34.65234375 164.109375 C-62.13994215 141.06952245 -85.73112958 112.05074738 -92.29296875 75.91015625 C-92.56560547 74.52376953 -92.56560547 74.52376953 -92.84375 73.109375 C-95.71637857 52.6512637 -90.73713787 33.72757125 -79.125 16.73828125 C-60.00515785 -7.76218905 -27.47347915 -16.10514295 0 0 Z " fill="#FC9D8E" transform="translate(237.29296875,160.08984375)"/>
<path d="M0 0 C2.42121667 1.02453626 3.0467534 1.98602059 4.35917664 4.24328613 C4.99199051 5.32875732 4.99199051 5.32875732 5.6375885 6.43615723 C7.93561051 10.65244588 10.10931453 14.92140164 12.23735046 19.22570801 C12.71858871 20.1910144 13.19982697 21.1563208 13.69564819 22.15087891 C15.2172539 25.20519886 16.73324364 28.26226601 18.24906921 31.31945801 C19.28580735 33.40297611 20.32291309 35.48631133 21.36039734 37.56945801 C23.89004234 42.65068456 26.41509441 47.73417262 28.93656921 52.81945801 C31.73272574 49.47316337 34.01280284 46.14069011 36.10844421 42.31945801 C36.97602356 40.74950073 36.97602356 40.74950073 37.86112976 39.14782715 C38.46352478 38.04946533 39.0659198 36.95110352 39.68656921 35.81945801 C47.96723795 20.89191184 47.96723795 20.89191184 51.62406921 14.88195801 C52.2054364 13.92418457 52.78680359 12.96641113 53.38578796 11.97961426 C54.93656921 9.81945801 54.93656921 9.81945801 57.93656921 7.81945801 C61.98087321 7.89435253 64.21582835 8.2207781 67.35844421 10.83117676 C69.45649524 13.26300863 70.80579454 15.21529586 72.30375671 17.99133301 C76.20963279 26.09045042 76.20963279 26.09045042 82.82719421 31.62023926 C86.20582318 32.2254661 89.12527368 32.0393319 92.55375671 31.71008301 C95.93656921 31.81945801 95.93656921 31.81945801 98.88188171 34.07727051 C100.93656921 36.81945801 100.93656921 36.81945801 100.93656921 40.44445801 C99.99113162 43.63530988 99.57285474 44.92133243 96.93656921 46.81945801 C93.19293685 48.69127419 88.74464916 48.13373948 84.62406921 48.19445801 C83.19804382 48.25053223 83.19804382 48.25053223 81.74320984 48.30773926 C74.70766371 48.39623669 74.70766371 48.39623669 71.00688171 45.62805176 C70.32367859 44.70121582 69.64047546 43.77437988 68.93656921 42.81945801 C68.2701239 41.9364502 67.60367859 41.05344238 66.91703796 40.14367676 C66.32535828 39.27355957 65.73367859 38.40344238 65.12406921 37.50695801 C64.5194989 36.6239502 63.91492859 35.74094238 63.29203796 34.83117676 C62.84473328 34.16730957 62.39742859 33.50344238 61.93656921 32.81945801 C59.24249495 35.23635589 57.66947991 37.82110656 55.93266296 40.98352051 C55.36136658 42.015979 54.79007019 43.0484375 54.20146179 44.11218262 C53.59842224 45.2118335 52.99538269 46.31148438 52.37406921 47.44445801 C51.11747639 49.70945801 49.85965738 51.97377817 48.60063171 54.23742676 C47.98091492 55.35294922 47.36119812 56.46847168 46.72270203 57.61779785 C44.26748517 62.01879756 41.77961612 66.39887437 39.24906921 70.75695801 C38.65340149 71.80134033 38.65340149 71.80134033 38.04570007 72.86682129 C36.21751474 75.99436815 35.00163162 77.77608307 31.93656921 79.81945801 C29.06156921 80.25695801 29.06156921 80.25695801 25.93656921 79.81945801 C20.7325216 75.67384243 18.30183549 70.22663985 15.41703796 64.33898926 C14.91360367 63.32978928 14.41016937 62.32058929 13.89147949 61.2808075 C12.83383939 59.15581436 11.78100786 57.02842193 10.73271179 54.89880371 C9.12207713 51.62791246 7.49646379 48.36481162 5.86820984 45.10266113 C4.84193858 43.03604092 3.81651786 40.96899808 2.79203796 38.90148926 C2.30462631 37.92130325 1.81721466 36.94111725 1.31503296 35.93122864 C0.6485247 34.57423103 0.6485247 34.57423103 -0.03144836 33.18981934 C-0.42495987 32.39215652 -0.81847137 31.59449371 -1.22390747 30.7726593 C-2.06343079 28.81945801 -2.06343079 28.81945801 -2.06343079 26.81945801 C-5.99041148 30.04912438 -7.80838497 34.90679306 -10.01460266 39.37023926 C-10.34911438 40.02379395 -10.6836261 40.67734863 -11.02827454 41.35070801 C-11.32338928 41.94432129 -11.61850403 42.53793457 -11.92256165 43.14953613 C-13.39380165 45.30303102 -14.8301394 46.47075272 -17.06343079 47.81945801 C-20.5203542 48.44992225 -23.99239973 48.32902455 -27.50093079 48.31945801 C-28.44259094 48.34781738 -29.3842511 48.37617676 -30.35444641 48.40539551 C-35.05671445 48.41866938 -37.33311072 48.36788359 -41.18452454 45.47570801 C-43.06343079 42.81945801 -43.06343079 42.81945801 -43.68843079 39.81945801 C-43.06343079 36.81945801 -43.06343079 36.81945801 -41.43843079 33.94445801 C-36.02315884 30.53484234 -30.29522702 31.43998462 -24.06343079 31.81945801 C-23.78869934 30.94313721 -23.5139679 30.06681641 -23.23091125 29.16394043 C-21.3917449 23.8952788 -18.75993772 19.07455466 -16.18843079 14.13195801 C-15.6586261 13.08717285 -15.12882141 12.0423877 -14.58296204 10.96594238 C-14.06346985 9.96498535 -13.54397766 8.96402832 -13.00874329 7.93273926 C-12.53968567 7.02306396 -12.07062805 6.11338867 -11.58735657 5.17614746 C-8.54141905 0.46572855 -5.69569709 -0.98604137 0 0 Z " fill="#FEFDFD" transform="translate(227.0634307861328,216.1805419921875)"/>
<path d="M0 0 C4.75302522 3.57863961 8.81845044 8.02895492 10 14 C10.75320054 21.88977562 11.16783531 29.56539726 6 36 C1.19551361 41.04521222 -3.16177055 44.60562995 -10.26953125 45.3359375 C-18.78576573 45.42983204 -24.67595494 45.1177288 -30.96484375 39.12890625 C-37.3466668 32.22505269 -38.48042252 26.79832071 -38.3046875 17.4453125 C-37.69738871 10.57816465 -35.08152961 6.76818579 -30.125 2.125 C-21.64943689 -4.70210497 -9.62183708 -5.13769791 0 0 Z " fill="#E45B79" transform="translate(270,443)"/>
<path d="M0 0 C4.88201639 3.92090354 8.8728567 8.35850344 10.74609375 14.40234375 C11.5512348 22.23842583 11.87069767 30.02156952 6.74609375 36.40234375 C1.94160736 41.44755597 -2.4156768 45.0079737 -9.5234375 45.73828125 C-18.06716779 45.83247894 -23.82697453 45.45963107 -30.21875 39.6015625 C-36.36979376 33.12346937 -37.71244629 26.89569204 -37.49609375 18.109375 C-36.87240988 11.13819882 -34.2901706 6.56993441 -29.1171875 1.87890625 C-21.30354932 -4.31303344 -8.65048184 -5.22749548 0 0 Z " fill="#E45B79" transform="translate(421.25390625,442.59765625)"/>
<path d="M0 0 C5.25495606 3.18687658 9.2224526 7.87816813 12 13.3125 C13.39393635 21.21147263 13.41520876 29.28467971 9.5625 36.5 C5.98386039 41.25302522 1.53354508 45.31845044 -4.4375 46.5 C-12.32727562 47.25320054 -20.00289726 47.66783531 -26.4375 42.5 C-31.48271222 37.69551361 -35.04312995 33.33822945 -35.7734375 26.23046875 C-35.86733204 17.71423427 -35.5552288 11.82404506 -29.56640625 5.53515625 C-21.52363185 -1.89946886 -10.4806088 -4.64434821 0 0 Z " fill="#E45B79" transform="translate(115.4375,441.5)"/>
<path d="M0 0 C4.75302522 3.57863961 8.81845044 8.02895492 10 14 C10.75320054 21.88977562 11.16783531 29.56539726 6 36 C1.19551361 41.04521222 -3.16177055 44.60562995 -10.26953125 45.3359375 C-18.78576573 45.42983204 -24.67595494 45.1177288 -30.96484375 39.12890625 C-37.3466668 32.22505269 -38.48042252 26.79832071 -38.3046875 17.4453125 C-37.69738871 10.57816465 -35.08152961 6.76818579 -30.125 2.125 C-21.64943689 -4.70210497 -9.62183708 -5.13769791 0 0 Z " fill="#E45B79" transform="translate(478,387)"/>
<path d="M0 0 C4.75302522 3.57863961 8.81845044 8.02895492 10 14 C10.75320054 21.88977562 11.16783531 29.56539726 6 36 C1.19551361 41.04521222 -3.16177055 44.60562995 -10.26953125 45.3359375 C-18.78576573 45.42983204 -24.67595494 45.1177288 -30.96484375 39.12890625 C-37.3466668 32.22505269 -38.48042252 26.79832071 -38.3046875 17.4453125 C-37.69738871 10.57816465 -35.08152961 6.76818579 -30.125 2.125 C-21.64943689 -4.70210497 -9.62183708 -5.13769791 0 0 Z " fill="#E45B79" transform="translate(62,387)"/>
<path d="M0 0 C4.88201639 3.92090354 8.8728567 8.35850344 10.74609375 14.40234375 C11.5512348 22.23842583 11.87069767 30.02156952 6.74609375 36.40234375 C1.94160736 41.44755597 -2.4156768 45.0079737 -9.5234375 45.73828125 C-18.06716779 45.83247894 -23.82697453 45.45963107 -30.21875 39.6015625 C-36.36979376 33.12346937 -37.71244629 26.89569204 -37.49609375 18.109375 C-36.87240988 11.13819882 -34.2901706 6.56993441 -29.1171875 1.87890625 C-21.30354932 -4.31303344 -8.65048184 -5.22749548 0 0 Z " fill="#E45B79" transform="translate(477.25390625,234.59765625)"/>
<path d="M0 0 C5.25495606 3.18687658 9.2224526 7.87816813 12 13.3125 C13.39393635 21.21147263 13.41520876 29.28467971 9.5625 36.5 C5.98386039 41.25302522 1.53354508 45.31845044 -4.4375 46.5 C-12.32727562 47.25320054 -20.00289726 47.66783531 -26.4375 42.5 C-31.48271222 37.69551361 -35.04312995 33.33822945 -35.7734375 26.23046875 C-35.86733204 17.71423427 -35.5552288 11.82404506 -29.56640625 5.53515625 C-21.52363185 -1.89946886 -10.4806088 -4.64434821 0 0 Z " fill="#E45B79" transform="translate(59.4375,233.5)"/>
<path d="M0 0 C5.82485779 3.51996782 10.54466582 8.98962934 12.5625 15.5 C13.36927794 23.35201321 13.6743336 31.09946885 8.5625 37.5 C3.37180773 43.16359699 -1.23876446 46.0784809 -9.0390625 46.7109375 C-17.18824717 47.00278158 -23.18291117 45.88643952 -29.25 40.25 C-35.34786958 33.52563698 -36.01393625 27.8087328 -35.77734375 18.875 C-34.99033545 11.05919346 -31.37156071 6.93468411 -25.53515625 1.9453125 C-18.47077988 -2.92213491 -7.84396301 -3.47595223 0 0 Z " fill="#E45B79" transform="translate(475.4375,81.5)"/>
<path d="M0 0 C5.82485779 3.51996782 10.54466582 8.98962934 12.5625 15.5 C13.36927794 23.35201321 13.6743336 31.09946885 8.5625 37.5 C3.37180773 43.16359699 -1.23876446 46.0784809 -9.0390625 46.7109375 C-17.18824717 47.00278158 -23.18291117 45.88643952 -29.25 40.25 C-35.34786958 33.52563698 -36.01393625 27.8087328 -35.77734375 18.875 C-34.99033545 11.05919346 -31.37156071 6.93468411 -25.53515625 1.9453125 C-18.47077988 -2.92213491 -7.84396301 -3.47595223 0 0 Z " fill="#E45B79" transform="translate(59.4375,81.5)"/>
<path d="M0 0 C4.88201639 3.92090354 8.8728567 8.35850344 10.74609375 14.40234375 C11.5512348 22.23842583 11.87069767 30.02156952 6.74609375 36.40234375 C1.94160736 41.44755597 -2.4156768 45.0079737 -9.5234375 45.73828125 C-18.06716779 45.83247894 -23.82697453 45.45963107 -30.21875 39.6015625 C-36.36979376 33.12346937 -37.71244629 26.89569204 -37.49609375 18.109375 C-36.87240988 11.13819882 -34.2901706 6.56993441 -29.1171875 1.87890625 C-21.30354932 -4.31303344 -8.65048184 -5.22749548 0 0 Z " fill="#E45B79" transform="translate(421.25390625,26.59765625)"/>
<path d="M0 0 C5.82485779 3.51996782 10.54466582 8.98962934 12.5625 15.5 C13.36927794 23.35201321 13.6743336 31.09946885 8.5625 37.5 C3.37180773 43.16359699 -1.23876446 46.0784809 -9.0390625 46.7109375 C-17.18824717 47.00278158 -23.18291117 45.88643952 -29.25 40.25 C-35.34786958 33.52563698 -36.01393625 27.8087328 -35.77734375 18.875 C-34.99033545 11.05919346 -31.37156071 6.93468411 -25.53515625 1.9453125 C-18.47077988 -2.92213491 -7.84396301 -3.47595223 0 0 Z " fill="#E45B79" transform="translate(267.4375,25.5)"/>
<path d="M0 0 C5.25495606 3.18687658 9.2224526 7.87816813 12 13.3125 C13.39393635 21.21147263 13.41520876 29.28467971 9.5625 36.5 C5.98386039 41.25302522 1.53354508 45.31845044 -4.4375 46.5 C-12.32727562 47.25320054 -20.00289726 47.66783531 -26.4375 42.5 C-31.48271222 37.69551361 -35.04312995 33.33822945 -35.7734375 26.23046875 C-35.86733204 17.71423427 -35.5552288 11.82404506 -29.56640625 5.53515625 C-21.52363185 -1.89946886 -10.4806088 -4.64434821 0 0 Z " fill="#E45B79" transform="translate(115.4375,25.5)"/>
<path d="M0 0 C5.28 0 10.56 0 16 0 C16 15.84 16 31.68 16 48 C32.17 48 48.34 48 65 48 C65 53.28 65 58.56 65 64 C57.11566243 64.09040077 49.23172834 64.16377239 41.34701157 64.20724869 C37.68573489 64.2281161 34.02483142 64.25641706 30.36376953 64.30175781 C26.83001289 64.34524763 23.29661501 64.36914348 19.76261139 64.37950897 C17.75948748 64.39048737 15.75650774 64.42170876 13.75360107 64.45318604 C12.53263733 64.45348816 11.31167358 64.45379028 10.05371094 64.45410156 C8.44154694 64.46742523 8.44154694 64.46742523 6.79681396 64.48101807 C4 64 4 64 1.65002441 62.34423828 C-0.44630024 59.3659281 -0.48456059 57.66271002 -0.45410156 54.03808594 C-0.45379944 52.83714294 -0.45349731 51.63619995 -0.45318604 50.39886475 C-0.43254089 49.10708313 -0.41189575 47.81530151 -0.390625 46.484375 C-0.38316071 45.14488571 -0.37746866 43.80538548 -0.37347412 42.46588135 C-0.35823213 38.94748564 -0.31896418 35.42975485 -0.2746582 31.91162109 C-0.23367364 28.31877639 -0.2154564 24.7258238 -0.1953125 21.1328125 C-0.15246729 14.08824433 -0.0821301 7.04423564 0 0 Z " fill="#733381" transform="translate(320,408)"/>
<path d="M0 0 C5.28 0 10.56 0 16 0 C16.09040438 7.75391441 16.16377491 15.50754036 16.20724869 23.26183701 C16.22811513 26.86258286 16.25641421 30.46294916 16.30175781 34.06347656 C16.34525125 37.53887913 16.36914421 41.01391688 16.37950897 44.48957062 C16.39048615 46.45945784 16.421707 48.42919847 16.45318604 50.39886475 C16.45363922 52.20027924 16.45363922 52.20027924 16.45410156 54.03808594 C16.46298401 55.09509705 16.47186646 56.15210815 16.48101807 57.2411499 C15.8626152 60.78796221 14.93022933 61.93539917 12 64 C9.20318604 64.48101807 9.20318604 64.48101807 5.94628906 64.45410156 C4.72532532 64.45379944 3.50436157 64.45349731 2.24639893 64.45318604 C0.93274353 64.43254089 -0.38091187 64.41189575 -1.734375 64.390625 C-3.09628468 64.38316087 -4.45820512 64.37746874 -5.82012939 64.37347412 C-9.39770368 64.35823092 -12.97462422 64.31896181 -16.55194092 64.2746582 C-20.20511024 64.23367632 -23.85838562 64.21545697 -27.51171875 64.1953125 C-34.67481114 64.1524649 -41.83723054 64.08212736 -49 64 C-49 58.72 -49 53.44 -49 48 C-32.83 48 -16.66 48 0 48 C0 32.16 0 16.32 0 0 Z " fill="#733381" transform="translate(176,408)"/>
<path d="M0 0 C7.75391441 -0.09040438 15.50754036 -0.16377491 23.26183701 -0.20724869 C26.86258286 -0.22811513 30.46294916 -0.25641421 34.06347656 -0.30175781 C37.53887913 -0.34525125 41.01391688 -0.36914421 44.48957062 -0.37950897 C46.45945784 -0.39048615 48.42919847 -0.421707 50.39886475 -0.45318604 C52.20027924 -0.45363922 52.20027924 -0.45363922 54.03808594 -0.45410156 C55.09509705 -0.46298401 56.15210815 -0.47186646 57.2411499 -0.48101807 C60.78796221 0.1373848 61.93539917 1.06977067 64 4 C64.48101807 6.79681396 64.48101807 6.79681396 64.45410156 10.05371094 C64.45379944 11.27467468 64.45349731 12.49563843 64.45318604 13.75360107 C64.43254089 15.06725647 64.41189575 16.38091187 64.390625 17.734375 C64.38316087 19.09628468 64.37746874 20.45820512 64.37347412 21.82012939 C64.35823092 25.39770368 64.31896181 28.97462422 64.2746582 32.55194092 C64.23367632 36.20511024 64.21545697 39.85838562 64.1953125 43.51171875 C64.1524649 50.67481114 64.08212736 57.83723054 64 65 C58.72 65 53.44 65 48 65 C48 48.83 48 32.66 48 16 C32.16 16 16.32 16 0 16 C0 10.72 0 5.44 0 0 Z " fill="#733381" transform="translate(408,320)"/>
<path d="M0 0 C1.20094299 0.00030212 2.40188599 0.00060425 3.63922119 0.00091553 C4.93100281 0.02156067 6.22278442 0.04220581 7.55371094 0.06347656 C8.89320022 0.07094085 10.23270046 0.0766329 11.57220459 0.08062744 C15.0906003 0.09586943 18.60833109 0.13513739 22.12646484 0.17944336 C25.71930955 0.22042792 29.31226214 0.23864516 32.90527344 0.25878906 C39.9498416 0.30163427 46.9938503 0.37197146 54.03808594 0.45410156 C54.03808594 5.73410156 54.03808594 11.01410156 54.03808594 16.45410156 C38.19808594 16.45410156 22.35808594 16.45410156 6.03808594 16.45410156 C6.03808594 32.62410156 6.03808594 48.79410156 6.03808594 65.45410156 C0.75808594 65.45410156 -4.52191406 65.45410156 -9.96191406 65.45410156 C-10.05231483 57.569764 -10.12568645 49.6858299 -10.16916275 41.80111313 C-10.19003016 38.13983645 -10.21833112 34.47893298 -10.26367188 30.81787109 C-10.30716169 27.28411445 -10.33105754 23.75071657 -10.34142303 20.21671295 C-10.35240143 18.21358904 -10.38362282 16.2106093 -10.4151001 14.20770264 C-10.41540222 12.98673889 -10.41570435 11.76577515 -10.41601562 10.5078125 C-10.42489807 9.4330365 -10.43378052 8.3582605 -10.44293213 7.25091553 C-9.96191406 4.45410156 -9.96191406 4.45410156 -8.30615234 2.10412598 C-5.32784216 0.00780132 -3.62462409 -0.03045903 0 0 Z " fill="#733380" transform="translate(49.9619140625,319.5458984375)"/>
<path d="M0 0 C5.28 0 10.56 0 16 0 C16.09040077 7.88433757 16.16377239 15.76827166 16.20724869 23.65298843 C16.2281161 27.31426511 16.25641706 30.97516858 16.30175781 34.63623047 C16.34524763 38.16998711 16.36914348 41.70338499 16.37950897 45.23738861 C16.39048737 47.24051252 16.42170876 49.24349226 16.45318604 51.24639893 C16.45363922 53.07784454 16.45363922 53.07784454 16.45410156 54.94628906 C16.46298401 56.02106506 16.47186646 57.09584106 16.48101807 58.20318604 C16 61 16 61 14.34423828 63.34997559 C11.3659281 65.44630024 9.66271002 65.48456059 6.03808594 65.45410156 C4.83714294 65.45379944 3.63619995 65.45349731 2.39886475 65.45318604 C1.10708313 65.43254089 -0.18469849 65.41189575 -1.515625 65.390625 C-2.85511429 65.38316071 -4.19461452 65.37746866 -5.53411865 65.37347412 C-9.05251436 65.35823213 -12.57024515 65.31896418 -16.08837891 65.2746582 C-19.68122361 65.23367364 -23.2741762 65.2154564 -26.8671875 65.1953125 C-33.91175567 65.15246729 -40.95576436 65.0821301 -48 65 C-48 59.72 -48 54.44 -48 49 C-32.16 49 -16.32 49 0 49 C0 32.83 0 16.66 0 0 Z " fill="#733381" transform="translate(456,127)"/>
<path d="M0 0 C5.28 0 10.56 0 16 0 C16 16.17 16 32.34 16 49 C31.84 49 47.68 49 64 49 C64 54.28 64 59.56 64 65 C56.24608559 65.09040438 48.49245964 65.16377491 40.73816299 65.20724869 C37.13741714 65.22811513 33.53705084 65.25641421 29.93652344 65.30175781 C26.46112087 65.34525125 22.98608312 65.36914421 19.51042938 65.37950897 C17.54054216 65.39048615 15.57080153 65.421707 13.60113525 65.45318604 C11.79972076 65.45363922 11.79972076 65.45363922 9.96191406 65.45410156 C8.3763974 65.46742523 8.3763974 65.46742523 6.7588501 65.48101807 C3.21203779 64.8626152 2.06460083 63.93022933 0 61 C-0.48101807 58.20318604 -0.48101807 58.20318604 -0.45410156 54.94628906 C-0.45379944 53.72532532 -0.45349731 52.50436157 -0.45318604 51.24639893 C-0.43254089 49.93274353 -0.41189575 48.61908813 -0.390625 47.265625 C-0.38316087 45.90371532 -0.37746874 44.54179488 -0.37347412 43.17987061 C-0.35823092 39.60229632 -0.31896181 36.02537578 -0.2746582 32.44805908 C-0.23367632 28.79488976 -0.21545697 25.14161438 -0.1953125 21.48828125 C-0.1524649 14.32518886 -0.08212736 7.16276946 0 0 Z " fill="#733381" transform="translate(40,127)"/>
<path d="M0 0 C1.22096375 0.00030212 2.44192749 0.00060425 3.69989014 0.00091553 C5.01354553 0.02156067 6.32720093 0.04220581 7.68066406 0.06347656 C9.04257374 0.0709407 10.40449418 0.07663282 11.76641846 0.08062744 C15.34399274 0.09587065 18.92091328 0.13513975 22.49822998 0.17944336 C26.1513993 0.22042524 29.80467468 0.2386446 33.45800781 0.25878906 C40.62110021 0.30163667 47.7835196 0.3719742 54.94628906 0.45410156 C54.94628906 5.73410156 54.94628906 11.01410156 54.94628906 16.45410156 C38.77628906 16.45410156 22.60628906 16.45410156 5.94628906 16.45410156 C5.94628906 32.29410156 5.94628906 48.13410156 5.94628906 64.45410156 C0.66628906 64.45410156 -4.61371094 64.45410156 -10.05371094 64.45410156 C-10.14411532 56.70018716 -10.21748585 48.9465612 -10.26095963 41.19226456 C-10.28182606 37.59151871 -10.31012514 33.99115241 -10.35546875 30.390625 C-10.39896219 26.91522243 -10.42285515 23.44018469 -10.43321991 19.96453094 C-10.44419709 17.99464373 -10.47541794 16.02490309 -10.50689697 14.05523682 C-10.5071991 12.85429382 -10.50750122 11.65335083 -10.5078125 10.41601562 C-10.51669495 9.35900452 -10.52557739 8.30199341 -10.534729 7.21295166 C-9.46139455 1.05690669 -5.73157737 -0.04736841 0 0 Z " fill="#733380" transform="translate(330.0537109375,39.5458984375)"/>
<path d="M0 0 C7.88433757 -0.09040077 15.76827166 -0.16377239 23.65298843 -0.20724869 C27.31426511 -0.2281161 30.97516858 -0.25641706 34.63623047 -0.30175781 C38.16998711 -0.34524763 41.70338499 -0.36914348 45.23738861 -0.37950897 C47.24051252 -0.39048737 49.24349226 -0.42170876 51.24639893 -0.45318604 C52.46736267 -0.45348816 53.68832642 -0.45379028 54.94628906 -0.45410156 C56.02106506 -0.46298401 57.09584106 -0.47186646 58.20318604 -0.48101807 C61 0 61 0 63.34997559 1.65576172 C65.44630024 4.6340719 65.48456059 6.33728998 65.45410156 9.96191406 C65.45379944 11.16285706 65.45349731 12.36380005 65.45318604 13.60113525 C65.43254089 14.89291687 65.41189575 16.18469849 65.390625 17.515625 C65.38316071 18.85511429 65.37746866 20.19461452 65.37347412 21.53411865 C65.35823213 25.05251436 65.31896418 28.57024515 65.2746582 32.08837891 C65.23367364 35.68122361 65.2154564 39.2741762 65.1953125 42.8671875 C65.15246729 49.91175567 65.0821301 56.95576436 65 64 C59.72 64 54.44 64 49 64 C49 48.16 49 32.32 49 16 C32.83 16 16.66 16 0 16 C0 10.72 0 5.44 0 0 Z " fill="#733381" transform="translate(127,40)"/>
<path d="M0 0 C5.28 0 10.56 0 16 0 C16 10.89 16 21.78 16 33 C10.72 33 5.44 33 0 33 C0 22.11 0 11.22 0 0 Z " fill="#733380" transform="translate(248,408)"/>
<path d="M0 0 C10.89 0 21.78 0 33 0 C33 5.28 33 10.56 33 16 C22.11 16 11.22 16 0 16 C0 10.72 0 5.44 0 0 Z " fill="#733380" transform="translate(408,248)"/>
<path d="M0 0 C10.89 0 21.78 0 33 0 C33 5.28 33 10.56 33 16 C22.11 16 11.22 16 0 16 C0 10.72 0 5.44 0 0 Z " fill="#733380" transform="translate(71,248)"/>
<path d="M0 0 C5.28 0 10.56 0 16 0 C16 10.89 16 21.78 16 33 C10.72 33 5.44 33 0 33 C0 22.11 0 11.22 0 0 Z " fill="#733380" transform="translate(248,71)"/>
</svg>
